<svg width="239" height="102" viewBox="0 0 239 102" fill="none" xmlns="http://www.w3.org/2000/svg">
<g clip-path="url(#clip0_256_3382)">
<path d="M236.545 45.8303L232.619 52.133L228.694 45.8303H226.286V59.1675H228.516V49.6308L232.548 55.8863H232.619L236.687 49.5954V59.1675H238.953V45.8303H236.545Z" fill="white"/>
<path d="M217.534 48.002H213.442V45.8303H223.902V48.002H219.811V59.1675H217.534V48.002Z" fill="white"/>
<path d="M13.6626 69.0819H22.261L35.971 101.351H26.4001L24.0992 95.5793H11.6345L9.33371 101.351H0L13.6626 69.0819ZM21.4782 88.6746L17.8847 79.61L14.2556 88.6746H21.4782Z" fill="white"/>
<path d="M39.1019 69.3062H48.0205V93.5728H63.6163V101.351H39.1019V69.3062Z" fill="white"/>
<path d="M67.4708 69.3062H76.3894V93.5728H91.9852V101.351H67.4708V69.3062Z" fill="white"/>
<path d="M95.8514 69.3062H109.704C117.792 69.3062 123.046 73.4725 123.046 80.5188V80.6133C123.046 88.2143 117.211 92.1918 109.241 92.1918H104.782V101.351H95.8633V69.3062H95.8514ZM109.051 85.24C112.182 85.24 114.163 83.5404 114.163 81.0264V80.9319C114.163 78.1819 112.182 76.7655 109.016 76.7655H104.782V85.24H109.063H109.051Z" fill="white"/>
<path d="M127.043 69.3062H135.961V101.351H127.043V69.3062Z" fill="white"/>
<path d="M141.856 69.3062H150.181L163.429 86.2432V69.3062H172.265V101.351H164.484L150.68 83.7764V101.351H141.844V69.3062H141.856Z" fill="white"/>
<path d="M176.902 85.4288V85.3344C176.902 75.9984 184.255 68.6688 194.193 68.6688C199.851 68.6688 203.847 70.3566 207.263 73.2955L202.021 79.61C199.72 77.6862 197.467 76.5885 194.253 76.5885C189.604 76.5885 186.022 80.4362 186.022 85.3344V85.4288C186.022 90.6457 189.651 94.3518 194.763 94.3518C196.969 94.3518 198.629 93.8915 199.91 93.0298V89.1349H193.612V82.6316H208.378V97.0074C204.974 99.8401 200.278 102 194.395 102C184.362 102 176.914 95.1307 176.914 85.4288H176.902Z" fill="white"/>
<path d="M210.892 96.5942L215.861 90.6928C219.075 93.2068 222.574 94.5405 226.298 94.5405C228.741 94.5405 230.022 93.7143 230.022 92.3452V92.2508C230.022 90.8817 228.967 90.1853 224.543 89.1349C217.688 87.5769 212.398 85.653 212.398 79.1143V79.0198C212.398 73.0712 217.13 68.7632 224.863 68.7632C230.342 68.7632 234.612 70.2267 238.111 73.024L233.651 79.2913C230.71 77.1904 227.484 76.1281 224.638 76.1281C222.479 76.1281 221.424 77.0016 221.424 78.1818V78.2763C221.424 79.7398 222.527 80.3772 227.033 81.3922C234.386 82.9974 238.988 85.3698 238.988 91.3656V91.46C238.988 98.0106 233.794 101.894 225.966 101.894C220.261 101.894 214.877 100.111 210.88 96.5824L210.892 96.5942Z" fill="white"/>
<path d="M121.232 1.97108V1.84125C121.232 1.84125 121.208 1.82945 121.196 1.81764C121.172 1.79404 121.137 1.77043 121.113 1.74683C121.113 1.74683 121.089 1.74683 121.077 1.74683L121.22 1.97108H121.232Z" fill="white"/>
<path d="M110.237 1.60525C106.703 1.53443 103.548 1.47542 100.05 1.51083L110.237 1.60525Z" fill="white"/>
<path d="M128.893 1.74683C128.893 1.74683 128.786 1.74683 128.739 1.74683C128.715 1.77043 128.691 1.79404 128.656 1.81764C128.656 1.81764 128.632 1.82945 128.62 1.84125V2.14812L128.893 1.74683Z" fill="white"/>
<path d="M149.849 1.51083C146.291 1.47542 143.101 1.53443 139.508 1.60525L149.849 1.51083Z" fill="white"/>
<path d="M177.934 9.6902C173.735 4.10746 167.438 0.802674 160.203 0.389575C151.391 -0.129749 146.078 -0.0235234 139.353 0.11811C136.211 0.177125 132.795 0.247941 128.608 0.259744C128.217 0.259744 127.932 0.483998 127.707 0.672843C127.636 0.731857 127.553 0.802674 127.458 0.861688L127.126 1.08594V36.3056H137.325V10.1151C137.835 10.1151 138.476 10.1151 139.223 10.1151C143.516 10.0915 151.498 10.0443 156.823 10.1623C161.401 10.2567 165.765 11.9918 168.778 14.8952C170.806 16.8545 172.17 19.1561 172.834 21.7055C173.996 26.226 172.786 31.372 169.608 35.4794C166.323 39.7166 161.543 42.1716 156.479 42.207C149.399 42.266 145.604 42.2542 140.717 42.2424C138.262 42.2424 135.523 42.2306 131.953 42.2306H127.043V61.1977L127.719 61.2685C128.087 61.3039 129.225 61.3158 130.565 61.3158C132.949 61.3158 135.973 61.2803 136.471 61.2685L136.863 52.499C137.064 52.4872 137.61 52.4636 137.812 52.4518C138.701 52.3928 139.579 52.3338 140.456 52.3338C142.295 52.3338 144.216 52.3692 146.125 52.4164C156.87 52.6525 167.948 52.9003 175.799 44.9688L176.119 44.78C176.119 44.78 176.261 44.5911 176.487 44.2371C177.163 43.4935 177.827 42.6791 178.444 41.7939C185.168 32.2454 184.955 19.038 177.922 9.6902H177.934ZM152.719 43.7295C152.719 43.7295 152.755 43.7295 152.767 43.7295H152.731H152.719ZM149.849 1.51084L139.508 1.60527C143.101 1.53445 146.303 1.47544 149.849 1.51084ZM128.656 1.80591C128.656 1.80591 128.715 1.7587 128.739 1.7351C128.798 1.7351 128.846 1.7351 128.893 1.7351L128.62 2.13639V1.82952C128.62 1.82952 128.644 1.81772 128.656 1.80591Z" fill="white"/>
<path d="M109.146 42.2423C104.26 42.2541 100.477 42.2659 93.3846 42.2069C88.3323 42.1715 83.5409 39.7165 80.2557 35.4793C77.0773 31.3719 75.8676 26.2259 77.0298 21.7054C77.6821 19.1442 79.046 16.8545 81.0859 14.8952C84.0983 11.9917 88.4509 10.2567 93.0406 10.1623C98.3657 10.0442 106.347 10.0914 110.641 10.115C111.388 10.115 112.028 10.115 112.538 10.115V36.3055H122.738V1.07408L122.406 0.849825C122.311 0.790811 122.228 0.719994 122.157 0.66098C121.931 0.483938 121.659 0.247881 121.267 0.247881C117.081 0.247881 113.665 0.177064 110.522 0.106247C103.786 -0.0235836 98.4725 -0.129809 89.6725 0.377712C82.4261 0.802614 76.1285 4.1074 71.942 9.67834C64.9091 19.0262 64.6956 32.2335 71.4201 41.782C72.191 42.8797 73.0093 43.8593 73.8632 44.7445V44.7563C81.7263 52.8885 92.8983 52.6406 103.715 52.3928C105.624 52.3455 122.809 52.3928 122.809 52.3928V42.2069H117.899C114.329 42.2069 111.601 42.2069 109.134 42.2187L109.146 42.2423ZM121.196 1.81766C121.196 1.81766 121.22 1.82946 121.232 1.84126V1.97109L121.089 1.74684C121.089 1.74684 121.113 1.74684 121.125 1.74684C121.149 1.77045 121.172 1.79405 121.208 1.81766H121.196ZM110.237 1.60521L100.05 1.51078C103.548 1.47537 106.703 1.53439 110.237 1.60521Z" fill="white"/>
<path d="M153.502 31.006C156.142 31.006 158.282 28.8764 158.282 26.2495C158.282 23.6225 156.142 21.4929 153.502 21.4929C150.863 21.4929 148.723 23.6225 148.723 26.2495C148.723 28.8764 150.863 31.006 153.502 31.006Z" fill="#C02026"/>
<path d="M95.2822 30.652C97.9219 30.652 100.062 28.5224 100.062 25.8955C100.062 23.2685 97.9219 21.1389 95.2822 21.1389C92.6426 21.1389 90.5027 23.2685 90.5027 25.8955C90.5027 28.5224 92.6426 30.652 95.2822 30.652Z" fill="#C02026"/>
</g>
<defs>
<clipPath id="clip0_256_3382">
<rect width="239" height="102" fill="white"/>
</clipPath>
</defs>
</svg>
